<svg enable-background="new 0 0 26 26" viewBox="0 0 26 26" xmlns="http://www.w3.org/2000/svg"><path d="m23.2294922 4h-20.4589844c-.9765625 0-1.7705078.84375-1.7705078 1.8808594v14.2382813c0 1.0371093.7939453 1.8808593 1.7705078 1.8808593h20.4589844c.9765625 0 1.7705078-.84375 1.7705078-1.8808594v-14.2382812c0-1.0371094-.7939453-1.8808594-1.7705078-1.8808594zm-7.5628052 9.0003052 7.833313-5.6533203v11.3060913zm7.5628052-7.5003052c.0535278 0 .1077881.0323486.1549072.0806885l-10.3843994 7.4944458-10.3843994-7.4944458c.0471191-.0483399.1013794-.0806885.1549072-.0806885zm-20.7294922 13.1530151v-11.3060302l7.8328247 5.6529541zm.2705078 1.8469849c-.0535278 0-.1077881-.0324707-.1549072-.0807495l8.9987183-6.4944458.9472046.6835938c.0224609.0162964.0484619.0229492.0721436.036377.0231323.0131226.0447388.024231.0689697.03479.0959472.0419311.1954955.0704345.2963866.0704345.0003662 0 .0006104-.0002441.0009766-.0002441s.0006104.0002441.0009766.0002441c.1008911 0 .2004395-.0285034.2963867-.0704346.024231-.0105591.0458374-.0216675.0689697-.03479.0236816-.0134277.0496826-.0200806.0721436-.036377l.9467163-.6832886 8.9992065 6.4942017c-.0471191.0482788-.1013794.0806885-.1549072.0806885z" fill="#1d1d1b"/></svg>