<?xml version="1.0" encoding="UTF-8" standalone="no"?>
<svg
   xmlns:dc="http://purl.org/dc/elements/1.1/"
   xmlns:cc="http://creativecommons.org/ns#"
   xmlns:rdf="http://www.w3.org/1999/02/22-rdf-syntax-ns#"
   xmlns:svg="http://www.w3.org/2000/svg"
   xmlns="http://www.w3.org/2000/svg"
   xmlns:sodipodi="http://sodipodi.sourceforge.net/DTD/sodipodi-0.dtd"
   xmlns:inkscape="http://www.inkscape.org/namespaces/inkscape"
   width="179mm"
   height="46mm"
   viewBox="0 0 179 46"
   version="1.1"
   id="svg8"
   sodipodi:docname="Vael Victus SVG.svg"
   inkscape:version="1.0.2-2 (e86c870879, 2021-01-15)">
  <defs id="defs2">
    <!-- left-to-right reveal mask for thick filled text -->
    <mask id="reveal_mask" maskUnits="userSpaceOnUse" x="0" y="0" width="179" height="46">
      <rect x="0" y="0" width="179" height="46" fill="black" />
      <rect x="0" y="0" width="0" height="46" fill="white">
        <animate
          attributeName="width"
          from="0"
          to="179"
          dur="1.6s"
          begin="0s"
          fill="freeze"
          calcMode="spline"
          keySplines="0.2 0 0.2 1"
          keyTimes="0;1"
        />
      </rect>
    </mask>
  </defs>

  <sodipodi:namedview
     id="base"
     pagecolor="#ffffff"
     bordercolor="#666666"
     borderopacity="1.0"
     inkscape:pageopacity="0.0"
     inkscape:pageshadow="2"
     inkscape:zoom="0.35"
     inkscape:cx="400"
     inkscape:cy="788.57143"
     inkscape:document-units="mm"
     inkscape:current-layer="text835"
     inkscape:document-rotation="0"
     showgrid="false"
     inkscape:window-width="1920"
     inkscape:window-height="1027"
     inkscape:window-x="-8"
     inkscape:window-y="-8"
     inkscape:window-maximized="1" />
  <metadata id="metadata5">
    <rdf:RDF>
      <cc:Work rdf:about="">
        <dc:format>image/svg+xml</dc:format>
        <dc:type rdf:resource="http://purl.org/dc/dcmitype/StillImage" />
        <dc:title></dc:title>
      </cc:Work>
    </rdf:RDF>
  </metadata>

  <g inkscape:label="Layer 1" inkscape:groupmode="layer" id="layer1">
    <g
       aria-label="Vael Victus"
       id="text835"
       mask="url(#reveal_mask)"
       style="font-size:38.1px;line-height:1.25;font-family:Charm;-inkscape-font-specification:Charm;stroke-width:0.264583;fill:currentColor"
       transform="translate(-12.700002,1.5875)">
      <path
         d="m 30.469115,37.422668 q -0.2667,0 -0.381,-0.1905 -0.0762,-0.1905 -0.1524,-0.8382 -0.381,-7.1247 -0.9525,-12.3825 -0.5715,-5.295899 -1.6383,-8.648699 -0.2667,-0.9906 -0.6096,-1.4478 -0.3429,-0.4572 -0.9906,-0.4572 -1.6764,0 -2.7813,3.2766 -0.2667,0.8001 -0.5715,0.8001 -0.2667,0 -0.2667,-0.6477 0,-1.4859 0.6858,-3.048 0.7239,-1.5621 1.905,-2.5908 1.1811,-1.0287 2.5527,-1.0287 0.8382,0 1.6002,0.7239 0.762,0.6858 1.4097,2.8575 0.8001,2.667 1.4859,8.1534 0.7239,5.448299 0.9906,10.972799 7.200899,-11.391899 7.200899,-16.954499 0,-0.9525 -0.2286,-1.4478 -0.1905,-0.4953 -0.6858,-1.0668 -0.1143,-0.1143 0.4191,-0.9525 0.5334,-0.8382 1.2192,-1.5621 0.7239,-0.7239 1.143,-0.7239 0.4572,0 0.9144,0.9525 0.4572,0.9525 0.4572,2.2479 0,1.7907 -0.9144,4.8387 -0.9144,3.0099 -2.7813,6.210299 l -5.562599,9.6393 q -0.0381,0.1143 -0.4953,0.8763 -0.4191,0.762 -0.762,1.2192 -0.381,0.4572 -1.0287,0.8382 -0.6477,0.381 -1.1811,0.381 z"
         style="font-size:38.1px;stroke-width:0.264583"
         id="path837" />
      <path
         d="m 44.794651,37.422668 q -1.9431,0 -1.9431,-3.6957 0,-3.5433 1.524,-6.9723 1.5621,-3.4671 4.191,-5.638799 2.6289,-2.2098 5.6769,-2.2098 1.5621,0 2.7051,0.4953 -0.4953,1.9431 -0.6858,2.8575 l -0.8001,4.114799 q -1.0668,4.8768 -1.2954,6.7437 -0.0381,0.2667 -0.0381,0.6477 0,0.8382 0.4953,0.8382 0.6096,0 1.143,-0.762 0.5334,-0.8001 1.2192,-2.2479 0.0381,-0.0381 0.1143,-0.2286 0.1143,-0.1905 0.2667,-0.1905 0.2286,0 0.2286,0.4572 l -0.0762,0.6096 q -0.2667,1.2573 -1.1049,2.4765 -0.8001,1.2192 -1.8288,1.9812 -0.9906,0.7239 -1.7907,0.7239 -1.3335,0 -1.3335,-2.1717 0,-0.8382 0.1905,-1.7145 l 0.6477,-3.3147 h -0.0381 q -1.8288,3.2004 -3.9243,5.2197 -2.0574,1.9812 -3.5433,1.9812 z m 1.7907,-3.1242 q 1.0668,0 2.4384,-1.6383 1.4097,-1.6764 2.5908,-4.0767 1.2192,-2.4003 1.6764,-4.3053 l 0.6096,-2.438399 q -1.143,-0.762 -2.4003,-0.762 -1.6383,0 -3.0099,1.905 -1.3335,1.866899 -2.0955,4.571999 -0.762,2.667 -0.762,4.8387 0,0.9525 0.1905,1.4478 0.2286,0.4572 0.762,0.4572 z"
         style="font-size:38.1px;stroke-width:0.264583"
         id="path839" />
      <path
         d="m 63.882695,37.422668 q -1.7145,0 -2.7432,-1.2954 -0.9906,-1.3335 -0.9906,-3.6576 0,-2.8194 1.3335,-6.0198 1.3716,-3.2385 3.5052,-5.372099 2.1336,-2.1717 4.3053,-2.1717 1.9812,0 1.9812,2.4003 0,1.943099 -1.143,3.809999 -1.143,1.8669 -3.0861,3.3147 -1.905,1.4097 -4.191,2.1717 0,2.0574 0.6477,2.9718 0.6858,0.9144 1.9812,0.9144 1.3716,0 2.5146,-0.8763 1.143,-0.8763 1.9431,-2.4003 0.1143,-0.2286 0.2286,-0.381 0.1143,-0.1524 0.3048,-0.1524 0.3048,0 0.3048,0.4572 0,1.0287 -1.0287,2.5527 -1.0287,1.524 -2.6289,2.6289 -1.6002,1.1049 -3.2385,1.1049 z m 0.1905,-8.8392 q 0.9906,0 2.0955,-0.6858 1.143,-0.7239 1.905,-1.9431 0.762,-1.2192 0.762,-2.7432 0,-1.790699 -1.2573,-1.790699 -1.0287,0 -1.9812,1.1049 -0.9144,1.104899 -1.5621,2.743199 -0.6096,1.6383 -0.8382,3.1623 0.2286,0.1524 0.8763,0.1524 z"
         style="font-size:38.1px;stroke-width:0.264583"
         id="path841" />
      <path
         d="m 75.084048,37.422668 q -0.7239,0 -1.0668,-0.6858 -0.3048,-0.7239 -0.3048,-1.7907 0,-0.7239 0.1524,-1.7145 l 2.2479,-15.011399 q 0.8001,-5.1816 1.943099,-8.001 1.143,-2.8193999 2.7432,-4.0766998 0.9144,-0.7239 1.905,-1.0668 0.9906,-0.3429 3.048,-0.8381999 0.9525,-0.1905 1.2192,-0.3048 0.2667,-0.1143 0.3429,-0.1143 0.2667,0 0.2667,0.3048 0,0.1524 -0.1905,0.4571999 -0.1524,0.3048 -0.5334,0.6477 -0.4191,0.381 -0.8001,0.5334 -0.381,0.1143 -0.9144,0.1524 -2.2098,0.2286 -3.2004,1.3715999 -1.8669,2.1335999 -2.7432,7.8866999 l -2.781299,17.945099 q -0.0381,0.2667 -0.0381,0.6477 0,0.8382 0.4953,0.8382 1.142999,0 2.666999,-3.3909 0.1524,-0.4191 0.4191,-0.4191 0.2667,0 0.2667,0.5334 0,1.2573 -0.9144,2.7051 -0.8763,1.4478 -2.095499,2.4384 -1.2192,0.9525 -2.1336,0.9525 z"
         style="font-size:38.1px;stroke-width:0.264583"
         id="path843" />
      <path
         d="m 102.74457,37.422668 q -0.2667,0 -0.381,-0.1905 -0.0762,-0.1905 -0.1524,-0.8382 -0.381,-7.1247 -0.9525,-12.3825 -0.5715,-5.295899 -1.638304,-8.648699 -0.2667,-0.9906 -0.609599,-1.4478 -0.3429,-0.4572 -0.9906,-0.4572 -1.6764,0 -2.7813,3.2766 -0.2667,0.8001 -0.5715,0.8001 -0.2667,0 -0.2667,-0.6477 0,-1.4859 0.6858,-3.048 0.7239,-1.5621 1.905,-2.5908 1.1811,-1.0287 2.552699,-1.0287 0.838204,0 1.600204,0.7239 0.762,0.6858 1.4097,2.8575 0.8001,2.667 1.4859,8.1534 0.7239,5.448299 0.9906,10.972799 7.2009,-11.391899 7.2009,-16.954499 0,-0.9525 -0.2286,-1.4478 -0.1905,-0.4953 -0.6858,-1.0668 -0.1143,-0.1143 0.4191,-0.9525 0.5334,-0.8382 1.2192,-1.5621 0.7239,-0.7239 1.143,-0.7239 0.4572,0 0.9144,0.9525 0.4572,0.9525 0.4572,2.2479 0,1.7907 -0.9144,4.8387 -0.9144,3.0099 -2.7813,6.210299 l -5.5626,9.6393 q -0.0381,0.1143 -0.4953,0.8763 -0.4191,0.762 -0.762,1.2192 -0.381,0.4572 -1.0287,0.8382 -0.6477,0.381 -1.1811,0.381 z"
         style="font-size:38.1px;stroke-width:0.264583"
         id="path845" />
      <path
         d="m 121.10869,16.734369 q -0.381,0 -0.3429,-0.381 l 0.4572,-2.667 q 0.1905,-1.1049 0.8001,-1.6764 0.6477,-0.6096 1.6002,-0.6096 h 0.1524 q 0.2286,0 0.2667,0.0762 0.0762,0.0762 0.0381,0.3048 l -0.4191,2.6289 q -0.1524,1.0668 -0.8001,1.7145 -0.6477,0.6096 -1.6002,0.6096 z m -2.2479,20.688299 q -1.2192,0 -1.2192,-1.7526 0,-0.8763 0.2286,-2.0193 l 1.8288,-10.1727 q 0.1524,-0.990599 0.1524,-1.219199 0,-0.5715 -0.3429,-0.5715 -0.4572,0 -1.1049,0.7239 -0.6477,0.723899 -1.4097,2.285999 -0.1524,0.4572 -0.381,0.4572 -0.2286,0 -0.2286,-0.381 0,-0.9144 0.8001,-2.324099 0.8382,-1.4478 2.0193,-2.4765 1.2192,-1.0668 2.2479,-1.0668 1.1811,0 1.1811,1.6764 0,0.8001 -0.2286,2.0955 l -1.9812,11.010899 -0.0762,0.4953 q 0,0.4191 0.3429,0.4191 0.4572,0 1.1049,-0.7239 0.6477,-0.762 1.4097,-2.286 0.1905,-0.4191 0.381,-0.4191 0.2286,0 0.2286,0.4953 0,0.8763 -0.8382,2.286 -0.8001,1.3716 -1.9812,2.4384 -1.1811,1.0287 -2.1336,1.0287 z"
         style="font-size:38.1px;stroke-width:0.264583"
         id="path847" />
      <path
         d="m 129.75732,37.422668 q -1.6383,0 -2.4384,-1.4478 -0.8001,-1.4859 -0.8001,-3.5052 0,-2.8956 1.3716,-6.096 1.4097,-3.2004 3.6195,-5.333999 2.2098,-2.1336 4.572,-2.1336 1.0287,0 1.6002,0.4191 0.6096,0.381 0.6096,1.0287 0,0.6096 -0.4572,1.4097 -0.2667,0.4572 -0.4953,0.4572 -0.1524,0 -0.2667,-0.1905 -0.8382,-1.1049 -2.0955,-1.1049 -1.524,0 -2.8575,1.2954 -1.2954,1.257299 -2.0574,3.390899 -0.762,2.1336 -0.762,4.6101 0,4.2672 2.3622,4.2672 1.2192,0 2.0955,-0.9144 0.8763,-0.9144 1.6383,-2.2479 0.0762,-0.1143 0.1905,-0.3048 0.1143,-0.1905 0.1905,-0.2667 0.1143,-0.0762 0.2667,-0.0762 0.1143,0 0.1905,0.1524 0.0762,0.1143 0.0762,0.3048 0,1.1049 -1.0287,2.6289 -1.0287,1.4859 -2.5908,2.5908 -1.524,1.0668 -2.9337,1.0668 z"
         style="font-size:38.1px;stroke-width:0.264583"
         id="path849" />
      <path
         d="m 144.31147,37.422668 q -1.143,0 -1.6002,-0.762 -0.4572,-0.8001 -0.4572,-2.1336 0,-0.9906 0.1524,-2.0955 0.1905,-1.143 0.2286,-1.3716 l 1.5621,-9.791699 h -3.8481 q -0.1905,0 -0.1905,-0.1905 0,-0.381 0.8382,-1.0668 0.8382,-0.7239 1.2192,-0.7239 h 2.286 l 0.381,-2.3622 q 0.1524,-1.2573 1.1811,-2.2479 1.0287,-0.9906 2.0574,-0.9906 0.1905,0 0.1905,0.1905 0,0.1524 -0.3429,0.9144 -0.3429,0.7239 -0.4953,1.5621 l -0.4572,2.9337 h 3.7338 q 0.2286,0 0.2286,0.2286 0,0.3048 -0.9144,1.0287 -0.8763,0.7239 -1.143,0.7239 h -2.1336 l -1.5621,9.715499 q -0.0381,0.2667 -0.2286,1.2954 -0.1524,1.0287 -0.1524,1.6002 0,1.2573 0.8382,1.2573 0.6096,0 1.2954,-0.5715 0.6858,-0.6096 1.2192,-1.6764 0.0381,-0.0762 0.0762,-0.1524 0.0762,-0.0762 0.1524,-0.0762 0.1905,0 0.1905,0.4953 0,0.762 -0.6858,1.7907 -0.6477,1.0287 -1.6764,1.7526 -0.9906,0.7239 -1.9431,0.7239 z"
         style="font-size:38.1px;stroke-width:0.264583"
         id="path851" />
      <path
         d="m 155.32229,37.422668 q -1.6002,0 -1.6002,-2.4003 0,-1.1811 0.381,-3.3528 l 1.2954,-7.8486 q 0.1524,-1.371599 0.1524,-1.562099 0,-0.5715 -0.3048,-0.5715 -0.8763,0 -2.0574,2.285999 -0.0762,0.1524 -0.2667,0.5334 -0.1524,0.3429 -0.2667,0.4572 -0.1143,0.0762 -0.2286,0.0762 -0.0762,0 -0.1524,-0.1143 -0.0762,-0.1524 -0.0762,-0.3429 0,-0.762 0.762,-2.133599 0.8001,-1.4097 1.9431,-2.4765 1.143,-1.0668 2.1717,-1.0668 0.6096,0 0.9525,0.5334 0.381,0.4953 0.381,1.3716 0,0.5715 -0.0762,0.8763 l -1.7907,11.239499 q -0.0762,0.5334 -0.0762,0.6858 0,0.8001 0.6096,0.8001 1.2573,0 2.7051,-1.6764 1.4859,-1.7145 2.5908,-4.0767 1.143,-2.3622 1.4859,-4.1529 l 0.5334,-2.781299 q 0.3048,-1.3716 1.2192,-2.0955 0.9525,-0.7239 1.7526,-0.7239 0.3048,0 0.3048,0.1905 0,0.1143 -0.1524,0.4572 -0.1524,0.3048 -0.2286,0.762 -0.5334,2.3622 -2.0955,10.972799 l -0.2286,1.2192 q -0.2667,1.3335 -0.2667,1.6383 0,0.5334 0.3429,0.5334 0.6096,0 1.3335,-0.9525 0.762,-0.9906 1.2192,-2.1336 0.2286,-0.4191 0.381,-0.4191 0.2286,0 0.2286,0.3429 0,0.4191 -0.0762,0.7239 -0.2667,1.3716 -1.0668,2.5527 -0.8001,1.1811 -1.7907,1.905 -0.9906,0.7239 -1.8288,0.7239 -1.4859,0 -1.4097,-2.3622 0.0762,-1.0287 0.4572,-2.7813 l 0.3429,-1.8669 h -0.0381 q -1.9812,3.1623 -4.0386,5.1054 -2.0574,1.905 -3.429,1.905 z"
         style="font-size:38.1px;stroke-width:0.264583"
         id="path853" />
      <path
         d="m 173.03872,37.422668 q -1.1811,0 -2.0193,-0.6477 -0.8382,-0.6477 -1.1049,-1.7145 -0.0762,-0.3048 0.2286,-0.9525 0.3429,-0.6858 0.8763,-1.3335 0.3048,-0.3429 0.4953,-0.3429 0.1905,0 0.3048,0.3048 1.143,2.667 3.1623,2.667 1.0287,0 1.6002,-0.6096 0.6096,-0.6477 0.6096,-1.7145 0,-1.4478 -1.6383,-3.7338 l -0.8001,-1.143 q -0.9144,-1.2954 -1.2954,-2.1336 -0.3429,-0.8382 -0.3429,-1.7907 0,-1.523999 0.8001,-2.743199 0.8382,-1.2192 2.1717,-1.905 1.3335,-0.7239 2.7813,-0.7239 2.7432,0 2.7432,1.8669 0,0.6858 -0.4953,1.3716 -0.2667,0.4572 -0.4572,0.4572 -0.2286,0 -0.4191,-0.4572 -0.4191,-0.7239 -1.0287,-1.0287 -0.5715,-0.3429 -1.4859,-0.3429 -1.0668,0 -1.7145,0.5715 -0.6477,0.5715 -0.6477,1.4478 0,0.495299 0.3048,1.142999 0.3429,0.6096 1.2573,1.905 l 0.8001,1.1049 q 1.0668,1.4097 1.4859,2.4384 0.4191,0.9906 0.4191,2.0955 0,1.4097 -0.9144,2.8194 -0.9144,1.3716 -2.4384,2.2479 -1.524,0.8763 -3.2385,0.8763 z"
         style="font-size:38.1px;stroke-width:0.264583"
         id="path855" />
    </g>
  </g>
</svg>
