<svg enable-background="new 0 0 511.998 511.998" viewBox="0 0 511.998 511.998" xmlns="http://www.w3.org/2000/svg"><path d="m115.265 452.529-42.096 14.098-42.195-42.195 14.098-42.096 35.047 35.146h.099z" fill="#ffd7a3"/><path d="m473.278 94.516-49.145 49.145-70.193-70.193 21.048-21.048 28.097-28.097z" fill="#afb6bb"/><path d="m353.94 73.468 70.193 70.193-21.048 21.048-35.047-35.047-35.146-35.146z" fill="#7e8488"/><path d="m73.169 466.627-63.243 21.048 21.048-63.243z" fill="#7e8488"/><path d="m38.131 266.315h407.035v49.561h-407.035z" fill="#fdb51e" transform="matrix(-.7071 .7071 -.7071 -.7071 618.3554 326.0606)"/><path d="m368.038 129.662-287.82 287.82h-.099l-35.047-35.146 287.82-287.82z" fill="#ffd311"/><path d="m410.114 17.304c-1.866-1.867-4.388-2.909-7.019-2.909s-5.163 1.042-7.019 2.909l-358.023 358.013c-1.082 1.082-1.906 2.413-2.393 3.872l-35.156 105.348c-1.181 3.564-.248 7.496 2.403 10.157 1.896 1.886 4.428 2.909 7.019 2.909 1.042 0 2.105-.169 3.127-.506l105.359-35.156c1.459-.486 2.78-1.311 3.872-2.393l308.868-308.868 49.135-49.145c3.882-3.882 3.882-10.157 0-14.039zm-329.936 386.179-21.078-21.137 273.791-273.791 21.109 21.107zm-4.626 21.008 9.531-7.059v.099l-9.432 6.97 22.468 23.689-21.693 7.039-33.756-33.448 8.101-21.058zm18.705-7.009 273.781-273.782 21.008 21.008-273.781 273.782zm252.674-322.966 7.009-7.009 56.154 56.154-7.009 7.009zm-311.589 348.323 19.42 19.42-29.149 9.73zm388.801-313.217-56.154-56.154 7.019-7.019 28.127 28.047 14.019-14.058-28.108-28.028 14.048-14.048 56.144 56.154z"/><path d="m414.258 91.619h19.856v19.797h-19.856z" transform="matrix(-.7071 .7071 -.7071 -.7071 795.9145 -126.6431)"/><path d="m154.581 473.775h238.278v19.857h-238.278z"/><path d="m412.715 477.051h19.857v19.857h-19.857z"/><path d="m452.428 477.051h19.857v19.857h-19.857z"/><path d="m492.141 477.051h19.857v19.857h-19.857z"/></svg>