<svg height="32" viewBox="0 0 32 32" width="32" xmlns="http://www.w3.org/2000/svg"><path d="m7.203125 28.28125-2.628906.882812-2.636719-2.636718.878906-2.632813 2.191406 2.199219h.003907zm0 0" fill="#ffd7a3"/><path d="m29.578125 5.90625-3.070313 3.074219-4.386718-4.390625 1.316406-1.3125 1.753906-1.757813zm0 0" fill="#afb6bb"/><path d="m22.121094 4.589844 4.386718 4.390625-1.316406 1.3125-4.386718-4.386719zm0 0" fill="#7e8488"/><path d="m4.574219 29.164062-3.953125 1.316407 1.316406-3.953125zm0 0" fill="#7e8488"/><path d="m25.191406 10.292969-17.988281 17.988281-2.1875-2.1875 17.988281-17.988281zm0 0" fill="#fdb51e"/><path d="m23.003906 8.105469-17.992187 17.988281h-.003907l-2.191406-2.199219 17.988282-17.988281zm0 0" fill="#ffd311"/><path d="m25.632812 1.082031c-.117187-.117187-.273437-.183593-.4375-.183593-.167968 0-.324218.066406-.441406.183593l-22.375 22.375c-.066406.066407-.121094.152344-.148437.242188l-2.199219 6.585937c-.0742188.222656-.015625.46875.152344.632813.117187.117187.273437.183593.4375.183593.0625 0 .128906-.011718.195312-.03125l6.585938-2.199218c.089844-.03125.171875-.082032.242187-.148438l19.300781-19.304687 3.074219-3.070313c.242188-.246094.242188-.636718 0-.878906zm-20.621093 24.136719-1.316407-1.320312 17.109376-17.113282 1.320312 1.320313zm-.289063 1.3125.59375-.441406v.007812l-.589844.433594 1.40625 1.480469-1.355468.441406-2.109375-2.089844.503906-1.316406zm1.167969-.4375 17.113281-17.113281 1.3125 1.3125-17.113281 17.113281zm15.792969-20.1875.4375-.4375 3.511718 3.511719-.441406.4375zm-19.476563 21.769531 1.214844 1.214844-1.820313.609375zm24.300781-19.574219-3.507812-3.511718.4375-.4375 1.757812 1.753906.875-.878906-1.753906-1.75.878906-.878906 3.507813 3.507812zm0 0"/><path d="m27.386719 6.34375-.875.878906-.875-.875.875-.878906zm0 0"/><path d="m9.660156 29.609375h14.894532v1.242187h-14.894532zm0 0"/><path d="m25.792969 29.816406h1.242187v1.242188h-1.242187zm0 0"/><path d="m28.277344 29.816406h1.242187v1.242188h-1.242187zm0 0"/><path d="m30.757812 29.816406h1.242188v1.242188h-1.242188zm0 0"/></svg>