<svg height="32" viewBox="0 0 32 32" width="32" xmlns="http://www.w3.org/2000/svg"><path d="m28.394531 2.621094c.601563.601562.902344 1.394531.902344 2.183594 0 .789062-.300781 1.582031-.902344 2.183593l-8.917969 8.917969-4.371093-4.367188 8.917969-8.917968c1.207031-1.207032 3.164062-1.207032 4.371093 0zm0 0" fill="#ff7124"/><path d="m19.476562 15.90625-11.957031 11.953125-4.367187-4.367187 11.953125-11.953126zm0 0" fill="#f2d59f"/><path d="m7.519531 27.859375-6.070312 1.703125 1.703125-6.070312zm0 0" fill="#e6b263"/><g fill="#5e2a41"><path d="m1.449219 30.296875c-.191407 0-.378907-.078125-.519531-.214844-.183594-.1875-.257813-.460937-.183594-.714843l1.703125-6.070313c.109375-.390625.511719-.617187.902343-.507813.386719.109376.613282.511719.507813.902344l-1.355469 4.816406 4.820313-1.351562c.386719-.109375.792969.117188.902343.507812.109376.386719-.117187.792969-.507812.902344l-6.070312 1.703125c-.066407.015625-.132813.027344-.199219.027344zm0 0"/><path d="m.730469 31.015625c-.1875 0-.371094-.074219-.515625-.214844-.2851565-.285156-.2851565-.75 0-1.035156l.714844-.71875c.289062-.285156.75-.285156 1.035156 0 .289062.285156.289062.75.003906 1.035156l-.71875.71875c-.144531.140625-.332031.214844-.519531.214844zm0 0"/><path d="m7.519531 28.59375c-.1875 0-.375-.074219-.515625-.214844l-4.367187-4.367187c-.136719-.136719-.214844-.324219-.214844-.519531 0-.191407.078125-.378907.214844-.515626l11.953125-11.957031 8.917968-8.917969c1.488282-1.488281 3.914063-1.488281 5.402344 0 .722656.722657 1.117188 1.683594 1.117188 2.703126 0 1.019531-.394532 1.980468-1.117188 2.699218l-20.871094 20.875c-.144531.140625-.332031.214844-.519531.214844zm-3.332031-5.101562 3.332031 3.332031 20.355469-20.355469c.445312-.441406.691406-1.035156.691406-1.664062 0-.628907-.246094-1.222657-.691406-1.667969-.917969-.917969-2.414062-.917969-3.332031 0zm0 0"/><path d="m22.535156 18.164062c-.1875 0-.375-.074218-.515625-.214843-.289062-.285157-.289062-.75 0-1.035157l7.601563-7.601562c.589844-.589844.914062-1.378906.914062-2.214844 0-.835937-.324218-1.625-.914062-2.214844l-1.746094-1.746093c-.285156-.285157-.285156-.75 0-1.035157.285156-.285156.75-.285156 1.035156 0l1.742188 1.746094c.871094.867188 1.347656 2.019532 1.347656 3.25 0 1.226563-.476562 2.382813-1.347656 3.25l-7.597656 7.601563c-.144532.140625-.332032.214843-.519532.214843zm0 0"/><path d="m19.476562 16.636719c-.1875 0-.375-.070313-.519531-.214844l-4.367187-4.367187c-.285156-.285157-.285156-.75 0-1.035157.285156-.285156.75-.285156 1.035156 0l4.367188 4.367188c.285156.289062.285156.75 0 1.035156-.144532.144531-.328126.214844-.515626.214844zm0 0"/></g></svg>